<svg t="1679588808250" class="icon" viewBox="0 0 1024 1024" version="1.1" xmlns="http://www.w3.org/2000/svg" p-id="16333" xmlns:xlink="http://www.w3.org/1999/xlink" width="1024" height="1024"><path d="M488.67 872.21H184.58c-13.67 0-21.87-7.59-25.52-12.15-3.65-4.56-9.57-14.28-6.68-27.64 17.01-81.87 59.69-156.14 120.15-209 29.92-26.13 63.19-46.48 99.03-60.45 36.91-14.43 75.64-21.72 115.29-21.72h0.61c130.93-0.61 237.26-107.39 237.26-238.62C724.72 170.93 617.78 64 486.4 64S248.07 171.08 248.07 302.62c0 72.76 32.66 137.92 84 181.81-42.38 17.47-81.87 42.07-117.26 73.06C140.23 622.8 87.52 714.24 66.56 814.64c-7.44 35.85 1.52 72.6 24.45 100.86 23.09 28.25 57.11 44.5 93.57 44.5h304.24c24.15 0 43.9-19.59 43.9-43.9-0.15-24.3-19.74-43.89-44.05-43.89z m-2.58-720.87c83.09 0 150.53 67.74 150.53 150.98S569.03 453.3 486.09 453.3s-150.53-67.74-150.53-150.98 67.45-150.98 150.53-150.98z" p-id="16334"></path>
    <path d="M916.1 710.44H798.39V592.58c0-24.15-19.59-43.9-43.9-43.9s-43.9 19.59-43.9 43.9v117.87H592.87c-24.15 0-43.9 19.59-43.9 43.9s19.59 43.9 43.9 43.9h117.72V916.1c0 24.15 19.59 43.9 43.9 43.9s43.9-19.59 43.9-43.9V798.24H916.1c24.15 0 43.9-19.59 43.9-43.9s-19.59-43.9-43.9-43.9z" p-id="16335">
    </path>
</svg>
