<svg t="1702199496806" class="icon" viewBox="0 0 1024 1024" version="1.1" xmlns="http://www.w3.org/2000/svg" p-id="3903" width="200" height="200"><path d="M802.17884445 440.15312592c0 15.29173333-12.37902222 27.67075555-27.67075556 27.67075556-15.29173333 0-27.67075555-12.37902222-27.67075556-27.67075556V208.10714075c0-15.29173333 12.37902222-27.67075555 27.67075556-27.67075557 15.29173333 0 27.67075555 12.37902222 27.67075556 27.67075557v232.04598517z m-258.8672 0c0 15.29173333-12.37902222 27.67075555-27.67075556 27.67075556-15.29173333 0-27.67075555-12.37902222-27.67075556-27.67075556V208.10714075c0-15.29173333 12.37902222-27.67075555 27.67075556-27.67075557 15.29173333 0 27.67075555 12.37902222 27.67075556 27.67075557v232.04598517z m-256.5613037 0c0 15.29173333-12.37902222 27.67075555-27.67075557 27.67075556-15.29173333 0-27.67075555-12.37902222-27.67075555-27.67075556V208.10714075c0-15.29173333 12.37902222-27.67075555 27.67075555-27.67075557 15.29173333 0 27.67075555 12.37902222 27.67075557 27.67075557v232.04598517z m515.4285037 0" fill="#7BCDFF" p-id="3904"></path><path d="M56.03934815 533.9666963h906.94542222c5.09724445 0 6.91768889-9.58767408 2.54862222-13.34992593l-113.47437037-98.18263704c-0.72817778-0.60681482-1.57771852-0.9709037-2.54862222-0.9709037H171.45552592c-0.9709037 0-1.82044445 0.36408889-2.54862222 0.9709037l-115.41617778 98.18263704c-4.36906667 3.76225185-2.42725925 13.34992592 2.54862223 13.34992593z m0 0" fill="#D7EFFF" p-id="3905"></path><path d="M965.65475555 538.82121482H58.58797037c-6.91768889 0-12.62174815 6.5536-12.62174815 14.56355555v218.69605926c0 8.00995555 5.5826963 14.56355555 12.62174815 14.56355555h907.06678518c6.91768889 0 12.62174815-6.5536 12.62174815-14.56355555V553.38477037c0-8.00995555-5.70405925-14.56355555-12.62174815-14.56355555z m0 0" fill="#006CC4" p-id="3906"></path><path d="M174.24687408 589.91502222h681.33167407v128.88746667H174.24687408z" fill="#00234C" p-id="3907"></path><path d="M741.74008889 661.88325925c0 12.74311111 6.79632592 24.39395555 17.71899259 30.70482964 11.04402963 6.31087408 24.51531852 6.31087408 35.55934815 0 11.04402963-6.31087408 17.71899259-18.08308148 17.71899259-30.70482964 0-12.74311111-6.79632592-24.39395555-17.71899259-30.82619258-11.04402963-6.31087408-24.51531852-6.31087408-35.55934815 0-10.92266667 6.43223703-17.71899259 18.20444445-17.71899259 30.82619258z m0 0" fill="#FF934A" p-id="3908"></path><path d="M752.90548148 661.88325925c0 8.73813333 4.61179259 16.74808889 12.25765927 21.11715557 7.5245037 4.36906667 16.86945185 4.36906667 24.39395555 0 7.5245037-4.36906667 12.25765925-12.37902222 12.25765925-21.11715557 0-8.73813333-4.61179259-16.74808889-12.25765925-21.11715555-7.5245037-4.36906667-16.86945185-4.36906667-24.39395555 0-7.64586667 4.36906667-12.25765925 12.37902222-12.25765927 21.11715555z m0 0" fill="#FEFFFD" p-id="3909"></path><path d="M758.48817778 661.88325925c0 6.67496297 3.51952592 12.86447408 9.34494814 16.26263705 5.82542222 3.39816297 12.98583703 3.39816297 18.81125926 0 5.82542222-3.39816297 9.34494815-9.58767408 9.34494815-16.26263705s-3.64088889-12.86447408-9.34494815-16.26263703c-5.82542222-3.39816297-12.98583703-3.39816297-18.81125926 0-5.82542222 3.39816297-9.34494815 9.58767408-9.34494814 16.26263703z m0 0M622.56165925 661.88325925c0 12.74311111 6.79632592 24.39395555 17.7189926 30.70482964 11.04402963 6.31087408 24.51531852 6.31087408 35.55934815 0 11.04402963-6.31087408 17.71899259-18.08308148 17.71899259-30.70482964 0-12.74311111-6.79632592-24.39395555-17.71899259-30.82619258-11.04402963-6.31087408-24.51531852-6.31087408-35.55934815 0-10.92266667 6.43223703-17.71899259 18.20444445-17.7189926 30.82619258z m0 0" fill="#FF934A" p-id="3910"></path><path d="M633.72705185 661.88325925c0 13.47128889 10.92266667 24.39395555 24.39395556 24.39395557 13.47128889 0 24.39395555-10.92266667 24.39395556-24.39395557 0-13.47128889-10.92266667-24.39395555-24.39395556-24.39395555-13.47128889 0-24.39395555 10.92266667-24.39395556 24.39395555z m0 0" fill="#FEFFFD" p-id="3911"></path><path d="M639.30974815 661.88325925c0 6.67496297 3.51952592 12.86447408 9.34494815 16.26263705 5.82542222 3.39816297 12.98583703 3.39816297 18.81125925 0 5.82542222-3.39816297 9.34494815-9.58767408 9.34494815-16.26263705s-3.64088889-12.86447408-9.34494815-16.26263703c-5.82542222-3.39816297-12.98583703-3.39816297-18.81125925 0-5.70405925 3.39816297-9.34494815 9.58767408-9.34494815 16.26263703z m0 0M503.38322963 661.88325925c0 12.74311111 6.79632592 24.39395555 17.71899259 30.70482964 11.04402963 6.31087408 24.51531852 6.31087408 35.55934815 0 11.04402963-6.31087408 17.71899259-18.08308148 17.7189926-30.70482964 0-19.6608-15.89854815-35.55934815-35.55934815-35.55934814s-35.43798518 15.89854815-35.43798519 35.55934814z m0 0" fill="#FF934A" p-id="3912"></path><path d="M514.54862222 661.88325925c0 8.73813333 4.61179259 16.74808889 12.25765926 21.11715557 7.5245037 4.36906667 16.86945185 4.36906667 24.39395555 0 7.5245037-4.36906667 12.25765925-12.37902222 12.25765927-21.11715557 0-8.73813333-4.61179259-16.74808889-12.25765927-21.11715555-7.5245037-4.36906667-16.86945185-4.36906667-24.39395555 0-7.64586667 4.36906667-12.25765925 12.37902222-12.25765926 21.11715555z m0 0" fill="#FEFFFD" p-id="3913"></path><path d="M520.13131852 661.88325925c0 6.67496297 3.51952592 12.86447408 9.34494815 16.26263705 5.82542222 3.39816297 12.98583703 3.39816297 18.81125925 0 5.82542222-3.39816297 9.34494815-9.58767408 9.34494816-16.26263705s-3.51952592-12.86447408-9.34494816-16.26263703c-5.82542222-3.39816297-12.98583703-3.39816297-18.81125925 0-5.70405925 3.39816297-9.34494815 9.58767408-9.34494815 16.26263703z m0 0" fill="#FF934A" p-id="3914"></path></svg>