<svg t="1679734164806" class="icon" viewBox="0 0 1024 1024" version="1.1" xmlns="http://www.w3.org/2000/svg" p-id="20842" xmlns:xlink="http://www.w3.org/1999/xlink" width="1024" height="1024"><path d="M660.94933333 444.29866667c-24.45866667 0-44.288-19.82933333-44.288-44.288 0-58.09066667-47.09333333-105.17333333-105.17333333-105.17333334-58.09066667 0-105.17333333 47.09333333-105.17333333 105.17333334 0 15.81866667-8.43733333 30.432-22.144 38.34666666a44.272 44.272 0 0 1-44.288 0 44.29866667 44.29866667 0 0 1-22.144-38.34666666c0-107.008 86.752-193.74933333 193.74933333-193.74933334 107.008 0 193.74933333 86.74133333 193.74933333 193.74933334 0 24.45866667-19.82933333 44.288-44.288 44.288z m0 0" p-id="20843"></path><path d="M796.576 444.29866667c-24.45866667 0-44.288-19.82933333-44.288-44.288 0-132.992-107.808-240.8-240.8-240.8S270.688 267.01866667 270.688 400.01066667c-0.10666667 24.37333333-19.904 44.08533333-44.288 44.08533333-24.384 0-44.17066667-19.70133333-44.288-44.08533333 0-181.90933333 147.46666667-329.376 329.36533333-329.376 181.90933333 0 329.376 147.46666667 329.376 329.376 0.01066667 24.45866667-19.81866667 44.288-44.27733333 44.288z m0 0" p-id="20844"></path><path d="M900.36266667 596.53333333H557.152V444.29866667c0-24.45866667-19.82933333-44.288-44.288-44.288-24.45866667 0-44.288 19.82933333-44.288 44.288v152.23466666H125.376c-30.57066667 0-55.36 24.78933333-55.36 55.36v247.72266667c0 30.57066667 24.78933333 55.36 55.36 55.36H900.37333333c30.57066667 0 55.36-24.78933333 55.36-55.36V651.88266667c0-14.67733333-5.83466667-28.75733333-16.21333333-39.136a55.40266667 55.40266667 0 0 0-39.15733333-16.21333334zM206.56 820.032c-17.92 0-34.05866667-10.79466667-40.91733333-27.33866667-6.848-16.55466667-3.06133333-35.59466667 9.6-48.256 12.66133333-12.66133333 31.712-16.45866667 48.256-9.6a44.27626667 44.27626667 0 0 1 27.33866666 40.91733334c0 24.45866667-19.82933333 44.27733333-44.27733333 44.27733333z m134.208 0a44.28693333 44.28693333 0 0 1-40.91733333-27.33866667 44.256 44.256 0 0 1 9.6-48.256c12.66133333-12.66133333 31.712-16.45866667 48.256-9.6a44.27626667 44.27626667 0 0 1 27.33866666 40.91733334c0 24.45866667-19.81866667 44.27733333-44.27733333 44.27733333z m0 0" p-id="20845"></path></svg>
