<?xml version="1.0" standalone="no"?><!DOCTYPE svg PUBLIC "-//W3C//DTD SVG 1.1//EN" "http://www.w3.org/Graphics/SVG/1.1/DTD/svg11.dtd"><svg t="1702198848738" class="icon" viewBox="0 0 1024 1024" version="1.1" xmlns="http://www.w3.org/2000/svg" p-id="3843" xmlns:xlink="http://www.w3.org/1999/xlink" width="200" height="200"><path d="M343.2448 141.4371552l2.95822187 4.41457813 409.6 682.66666667a45.51111147 45.51111147 0 0 1-75.04782187 51.2l-2.95822187-4.41457814-409.6-682.66666666A45.51111147 45.51111147 0 0 1 343.2448 141.48266666zM830.57777813 260.26666666a136.53333333 136.53333333 0 0 1 136.30577707 128.52337814L967.11111147 396.8v227.5555552a136.53333333 136.53333333 0 0 1-128.52337814 136.30577813L830.57777813 760.88888853h-44.78293333a45.51111147 45.51111147 0 0 1-5.3248-90.70364373l5.3248-0.31857814H830.57777813a45.51111147 45.51111147 0 0 0 45.19253334-40.18631146L876.08888853 624.3555552V396.8a45.51111147 45.51111147 0 0 0-40.1863104-45.19253334L830.57777813 351.28888853h-271.79235626a45.51111147 45.51111147 0 0 1-5.3248-90.70364373L558.78542187 260.26666666H830.57777813zM239.8435552 260.26666666a45.51111147 45.51111147 0 0 1 5.2792896 90.7036448L239.7980448 351.28888853H193.42222187a45.51111147 45.51111147 0 0 0-45.19253334 40.18631147L147.91111147 396.8v227.5555552a45.51111147 45.51111147 0 0 0 40.1863104 45.19253333L193.42222187 669.86666666h227.78311146a45.51111147 45.51111147 0 0 1 5.27928854 90.7036448l-5.27928854 0.31857707H193.42222187a136.53333333 136.53333333 0 0 1-136.30577707-128.52337707L56.88888853 624.3555552V396.8a136.53333333 136.53333333 0 0 1 128.52337814-136.30577814L193.42222187 260.26666666h46.42133333z m517.9164448 204.8a45.51111147 45.51111147 0 0 1 5.3248 90.7036448l-5.3248 0.31857707h-81.92a45.51111147 45.51111147 0 0 1-5.3248-90.70364373l5.3248-0.31857814h81.92z m-409.6 0a45.51111147 45.51111147 0 0 1 5.3248 90.7036448L348.16 556.08888853H266.24a45.51111147 45.51111147 0 0 1-5.3248-90.70364373L266.24 465.06666666h81.92z" p-id="3844"></path></svg>