<svg t="1679916618582" class="icon" viewBox="0 0 1117 1024" version="1.1" xmlns="http://www.w3.org/2000/svg" p-id="17014" xmlns:xlink="http://www.w3.org/1999/xlink" width="41.451171875" height="38"><path d="M907.5078125 907.5078125H188.40269879a71.91051129 71.91051129 0 0 1-71.91051129-71.91051129V188.40269879a71.91051129 71.91051129 0 0 1 71.91051129-71.91051129h719.10511371a71.91051129 71.91051129 0 0 1 71.91051129 71.91051129v647.19460242a71.91051129 71.91051129 0 0 1-71.91051129 71.91051129zM188.40269879 835.59730121h719.10511371V388.70942799l-328.37934986 189.59206334a276.56782643 276.56782643 0 0 1-57.85200689 13.9506397L188.40269879 400.07128906V835.59730121zM188.40269879 188.40269879v128.61194965l350.7435191 202.5359549a31.06534113 31.06534113 0 0 1 4.02698872-3.59552522L907.5078125 305.65278736V188.40269879H188.40269879z" p-id="17015"></path></svg>
