<svg t="1679807590524" class="icon" viewBox="0 0 1158 1024" version="1.1" xmlns="http://www.w3.org/2000/svg" p-id="5771" xmlns:xlink="http://www.w3.org/1999/xlink" width="1158" height="1024"><path d="M482.46340185 962H238.39941113c-36.75762422 0-66.55214092-30.19714629-66.55214179-67.45213477V588.9764331H84.19265263A22.3340458 22.3340458 0 0 1 62.00071015 566.47659834c0-5.80258916 2.22629941-11.39202158 6.22890176-15.58409502L507.379008 89.48011308a87.86777344 87.86777344 0 0 1 127.65695362 1e-8l439.14939609 461.36502158a22.71299062 22.71299062 0 0 1-0.5447329 31.80766025 22.02615353 22.02615353 0 0 1-15.39462305 6.29995342H970.52033164v305.57143301c0 37.25498848-29.77083369 67.45213477-66.52845703 67.45213477H659.95156777v-107.54920811c0-49.66542334-39.71812852-89.92828477-88.72039863-89.92828389H571.20748437c-49.00227012 0-88.72039865 40.26286143-88.72039863 89.92828389V962z" p-id="5772"></path></svg>
