<svg t="1647408499634" class="icon" viewBox="0 0 1024 1024" version="1.1" xmlns="http://www.w3.org/2000/svg" p-id="6459" width="200" height="200"><path d="M788.36314999 407.62401667L235.62634999 407.62401667c-47.7414 0-86.43914999 38.61795001-86.43914999 86.26800002l0 365.94494999c0 47.6511 38.69774999 86.268 86.43914999 86.268l552.73785001 0c47.74245001 0 86.4507-38.6169 86.4507-86.268L874.8149 493.89201669C874.81384999 446.24196668 836.1056 407.62401667 788.36314999 407.62401667zM548.3993 674.38911667l0 96.05295001c0 20.097-16.28654999 36.40665001-36.40455001 36.40665001-20.10645001 0-36.40455001-16.30964999-36.40454999-36.40665001l0-96.05294999c-21.73814999-12.5916-36.4056-36.06225001-36.4056-63.00105001 0-40.215 32.59515001-72.8112 72.81014999-72.8112s72.8217 32.5962 72.8217 72.8112C584.81645001 638.32686668 570.16054999 661.79751669 548.3993 674.38911667zM511.99474999 61.72986668c-140.74934999 0-254.8581 112.50015001-254.8581 260.3097l2e-8 113.04824999 509.7288 24.2697L766.86545001 322.03956668C766.86545001 174.23001667 652.7567 61.72986668 511.99474999 61.72986668zM329.99194999 428.70066668L329.99194999 319.50801667c0-100.5018 81.4884-182.0028 182.00175001-182.0028 100.5249 0 182.0028 81.501 182.0028 182.0028l0 111.7473L329.99194999 428.70066668z" p-id="6460"></path></svg>