<svg t="1679734174288" class="icon" viewBox="0 0 1024 1024" version="1.1" xmlns="http://www.w3.org/2000/svg" p-id="20998" xmlns:xlink="http://www.w3.org/1999/xlink" width="1024" height="1024"><path d="M609.09036999 707.63709667l-5.09724444 5.82542223-33.49617778 103.64396999c-5.82542222 18.20444445 3.88361443 28.15620779 21.60260778 22.08805888l97.09037-32.28254777 10.19448888-11.65084445a4.8545189 4.8545189 0 0 1 2.18453334-3.64088888 10.43721443 10.43721443 0 0 0 4.12634112-13.83537778l-80.09955556-75.00231111a13.59265223 13.59265223 0 0 0-15.77718556 5.33996999z m-382.05060665 236.90050333h-43.93339335A44.1761189 44.1761189 0 0 1 139.41570333 900.3614811V123.6385189a44.66156999 44.66156999 0 0 1 44.17611889-44.66157113h43.69066667z m61.40965888 0V79.4624h552.44420779A44.1761189 44.1761189 0 0 1 884.58429667 123.6385189v269.66850332L760.06589667 536.27259221l-97.09037112 110.19757113a14.07810333 14.07810333 0 0 0 3.64088888 16.99081444v1.45635555l67.47780779 61.89511112a20.38897778 20.38897778 0 0 0 24.27259221 0l1.94180779-1.21363002 83.25499221-95.1485622L882.88521443 584.81777778l-1.21362886 315.54370332a44.66156999 44.66156999 0 0 1-44.1761189 44.66157113H288.44942222z" p-id="20999"></path></svg>
