<svg t="1646315887535" class="icon" viewBox="0 0 1024 1024" version="1.1" xmlns="http://www.w3.org/2000/svg" p-id="4454" width="200" height="200"><path d="M723.84 370.34666666a846.51733333 846.51733333 0 0 0 7.168 224.85333333c69.07733333-35.28533333 132.93866667-63.66933333 190.93333333-84.85333333-69.16266667-114.16533333-167.05066667-216.736-41.17333333-375.808h-12.40533333a1110.90133333 1110.90133333 0 0 1-119.73333334 97.42933333A927.18933333 927.18933333 0 0 0 723.84 370.34666666zM233.78133333 435.48799999a1232.98133333 1232.98133333 0 0 1-138.66666666 11.46666667c73.83466667 116.56533333 167.76533333 231.904-0.96 422.4h192.85333333c53.33333333-38.10133333 118.80533333-82.70933333 189.93066667-127.776-47.46666667-143.25333333-145.20533333-239.72266667-243.15733334-306.09066667zM299.73333333 869.33333332h203.808a584.672 584.672 0 0 0-24.27733333-120.59733333C411.73333333 791.53066666 350.34666667 833.27999999 299.73333333 869.33333332zM39.75466667 332.42666666c9.6 37.33333333 29.04533333 72.43733333 50.80533333 107.27466666a1217.312 1217.312 0 0 0 133.792-10.496c-67.69066667-44.55466667-134.752-74.98666667-184.59733333-96.77866666zM857.6 134.53866666h-78.08c-8.896 23.38133333-18.79466667 52.50133333-27.95733333 86.29333333A1104.81066667 1104.81066667 0 0 0 857.6 134.53866666zM925.86666667 516.83199999c-63.66933333 23.17866667-129.74933333 53.408-193.52533334 86.048 14.93333333 83.94666667 44.608 174.61333333 97.46133334 266.44266667h50.976C1015.98933333 716.67199999 982.496 612.26666666 925.86666667 516.83199999z" fill="#1296db" p-id="4455"></path><path d="M408.20266667 397.49333332a1181.20533333 1181.20533333 0 0 1-163.86133334 36.45866667 728.71466667 728.71466667 0 0 1 100.26666667 83.04C403.616 575.99999999 447.776 643.19999999 475.85066667 716.93866666q3.89333333 10.208 7.37066666 20.64c38.51733333-24.29866667 78.61333333-48.68266667 119.296-72.20266667q62.93333333-36.384 121.22666667-66.4c-12.66133333-74.56-15.104-151.46666667-7.21066667-229.65333333a939.328 939.328 0 0 1 22.82666667-130.88q-18.05866667 12.49066667-37.76 25.04533333a1178.86933333 1178.86933333 0 0 1-106.592 60.18133333A105.73866667 105.73866667 0 0 1 613.73866667 383.99999999c0 58.03733333-103.46666667 224.576-103.46666667 224.576s-89.664-144.30933333-102.06933333-211.08266667zM725.088 606.59199999c-41.088 21.20533333-81.14133333 43.33866667-118.88 65.152-41.6 24.05333333-82.13333333 48.672-120.64 72.98133333A593.76 593.76 0 0 1 510.816 869.33333332H821.12a825.92 825.92 0 0 1-81.216-196.34133333q-8.8-32.84266667-14.816-66.4z" fill="#afcd50" p-id="4456"></path><path d="M407.09333333 389.80266666c-0.20266667-2.03733333-0.29866667-3.97866667-0.29866666-5.81333334 0-58.048 46.32533333-105.09866667 103.46666666-105.09866666a102.66666667 102.66666667 0 0 1 80.17066667 38.656A1155.04 1155.04 0 0 0 697.6 257.25866666q23.46666667-14.93333333 44.48-29.728c7.84-30.144 16.13866667-56.096 23.46666667-76.8q3.008-8.53333333 5.93066666-16.192h-677.33333333c-57.42933333 72.53333333-68.26666667 133.408-56.53333333 188.928 52.128 22.72 124.64 55.14666667 197.52533333 104.224a1183.75466667 1183.75466667 0 0 0 171.95733333-37.888z m-290.88-101.49333334A12.88533333 12.88533333 0 1 1 129.06666667 275.41333332a12.88533333 12.88533333 0 0 1-12.85333334 12.88533334z m37.00266667-105.97333333c-12.256 2.98666667-20.94933333 11.53066667-25.888 25.472a76.448 76.448 0 0 0-3.94666667 19.2 6.93333333 6.93333333 0 0 1-13.86666666-1.13066667 90.54933333 90.54933333 0 0 1 4.69333333-22.69866666c6.58133333-18.528 18.82666667-30.26133333 35.68-34.32533334a6.95466667 6.95466667 0 0 1 8.59733333 6.06933334 6.95466667 6.95466667 0 0 1-5.28 7.41333333z" fill="#efb336" p-id="4457"></path><path d="M505.44 264.82133332A112.48 112.48 0 0 0 392.96 377.30133332c0 62.12266667 112.48 238.29333333 112.48 238.29333334S617.92 439.46666666 617.92 377.30133332a112.48 112.48 0 0 0-112.48-112.48z m0 161.71733334A47.072 47.072 0 1 1 552.53333333 379.46666666a47.072 47.072 0 0 1-47.09333333 47.072z" fill="#d81e06" p-id="4458"></path><path d="M505.44 379.46666666m-47.072 0a47.072 47.072 0 1 0 94.144 0 47.072 47.072 0 1 0-94.144 0Z" fill="#ffffff" p-id="4459"></path></svg>