<svg t="1646316019267" class="icon" viewBox="0 0 1024 1024" version="1.1" xmlns="http://www.w3.org/2000/svg" p-id="4454" width="200" height="200"><path d="M1013.92779378 248.67914752v-87.08712107h-6.76690489L983.77093575 188.36543261c-3.38345187 3.38345187-6.76690489 3.38345187-10.00325006 3.38345187h-10.00325006c-3.38345187 0-10.00325006-3.38345187-10.00325006-6.76690489l-16.77015496-13.38670194c-3.38345187-3.38345187-6.76690489-6.76690489-10.00325006-6.76690488h-20.15360796c-3.38345187 0-10.00325006-3.38345187-13.38670194-6.7669049l-36.77665622-53.54681002c-3.38345187-3.38345187-6.76690489-6.76690489-10.00325006-6.76690489l-23.38995314-3.38345187h-6.76690374l-36.77665622 13.38670193v20.15360797l-6.76690375 43.54355996c0 3.38345187-3.38345187 6.61979819-3.38345301 6.61979819l-6.76690489 6.76690375c-3.38345187 3.38345187-6.76690489 3.38345187-10.00325007 3.38345301h-6.76690374c-6.76690489 0-13.38670307 3.38345187-13.38670308 10.00325007l-6.76690489 16.77015494c-3.38345187 10.00325006 3.38345187 20.15360683 13.38670307 20.15360683h16.77015496l13.38670194-10.00325006 10.00325006 6.76690489c6.76690489 6.76690489 3.38345187 20.15360683-6.76690376 23.389952l-30.15685802 10.0032512V285.45580259h-30.15685689l-6.76690489 20.15360683-26.77340501-3.38345187c-6.61979819 0-10.00325006 3.38345187-13.38670308 6.76690488l-6.76690375 10.00325007 10.00325006 10.00325006-26.77340501 30.15685689c-3.38345187 3.38345187-6.76690489 3.38345187-10.0032512 3.38345301h-40.16010695c-3.38345187 0-6.76690489 0-10.0032512 3.38345188l-10.00325006 10.00325006c-3.38345187 3.38345187-6.76690489 3.38345187-10.00325006 3.38345301H531.85939342c-3.38345187 0-6.76690489 0-10.00325006-3.38345301l-20.15360683-16.77015495c-3.38345187 0-3.38345187-3.38345187-6.76690488-3.38345188l-73.70041686-3.38345187c-3.38345187 0-6.76690489-3.38345187-10.0032512-6.76690489l-40.16010695-53.54681003c-3.38345187-3.38345187-6.76690489-6.76690489-10.00325006-6.76690489h-3.38345301c-6.76690489 0-13.38670307-6.76690489-13.38670194-13.38670307V248.67914752l-3.38345302-20.15360797c0-3.38345187-3.38345187-6.76690489-6.76690488-10.00325006h-23.389952c-3.38345187 0-6.76690489-3.38345187-6.7669049-6.76690488l-6.61979818-20.15360683h-16.77015495l-10.00325007 13.38670307H253.82787869v16.77015496h-33.54030991c-3.38345187 0-10.00325006 3.38345187-10.00325006 6.76690374l-13.23959637 20.15360797c-3.38345187 3.38345187-6.76690489 6.76690489-13.38670194 6.76690375H166.88786546c-6.76690489 0-13.38670307 6.76690489-13.38670308 13.38670308v20.15360682c0 3.38345187 0 6.76690489-3.38345187 6.76690489l-10.00325006 16.77015495c-3.38345187 3.38345187-3.38345187 6.76690489-10.00325007 6.76690489l-36.77665621 10.00325007h-56.9302619c-3.38345187 0-6.76690489 3.38345187-10.0032512 3.38345187l-10.00325006 13.38670307c-6.76690489 10.00325006-6.76690489 13.38670307-6.7669049 16.77015496V379.60404082h13.38670308v53.54681003c0 3.38345187 3.38345187 6.76690489 6.61979819 10.00325006l23.38995313 20.15360682c3.38345187 3.38345187 3.38345187 3.38345187 3.38345188 6.76690489l6.76690489 23.38995314V537.00812573h-13.38670307v26.77340501c0 3.38345187 3.38345187 6.76690489 3.38345301 10.00325006l30.15685689 26.77340501h16.77015495L170.41842403 670.87515193l56.93026304 23.389952 10.00325007-13.38670194h20.15360683c6.76690489 0 10.00325006 3.38345187 13.38670307 6.76690489l10.00325006 20.15360683c3.38345187 3.38345187 6.76690489 6.61979819 13.38670308 6.61979818h16.77015495c3.38345187 0 3.38345187 0 6.76690375-3.38345301l33.5403099-20.15360683c3.38345187-3.38345187 10.00325006-3.38345187 13.38670308 0l30.15685689 13.38670308v-13.38670308h16.77015495l6.76690489 20.15360683v30.15685803c0 3.38345187 0 6.76690489-3.38345188 10.00325006L397.99236835 767.52420181v16.77015496l13.38670194 3.38345187c3.38345187 0 10.00325006 3.38345187 10.0032512 10.0032512l3.38345188 10.00325006v23.53705984l33.5403099 23.389952c3.38345187 3.38345187 6.76690489 3.38345187 6.76690489 3.38345301h6.76690375c6.76690489 0 13.38670307-6.76690489 13.38670308-13.38670307s6.76690489-13.38670307 13.38670194-13.38670194H531.85939342c3.38345187 0 6.76690489 0 10.0032512-3.38345301l10.00325007-6.76690489c6.76690489-3.38345187 13.38670307-3.38345187 20.15360682 3.38345301l23.38995314 26.77340502c3.38345187 3.38345187 6.61979819 6.76690489 10.00325006 6.76690488h40.16010809l3.38345187 16.77015496-23.38995313 26.77340501v16.77015495l16.77015495 10.00325006c6.76690489 3.38345187 16.77015495 0 20.15360796-6.76690488l16.77015496-23.38995314c3.38345187-3.38345187 3.38345187-6.76690489 3.38345187-10.00325006l-3.38345187-23.38995314c0-6.76690489 3.38345187-16.77015495 10.00325006-16.77015382l23.38995314-6.76690488h6.76690374l13.38670308 3.38345187 16.77015495-6.76690489 3.38345188-16.77015495c0-6.76690489 6.76690489-10.00325006 10.00325006-10.00325006l20.15360797-6.76690375c3.38345187 0 3.38345187 0 6.76690374-3.38345302l63.55006123-56.93026304c3.38345187-3.38345187 3.38345187-3.38345187 3.38345188-6.76690375l10.00325006-50.16335815c0-3.38345187 3.38345187-6.76690489 6.76690489-10.00325006l16.77015495-10.0032512c3.38345187-3.38345187 6.61979819-10.00325006 6.61979819-13.38670194l-6.61979819-60.31371492c0-3.38345187-3.38345187-6.76690489-6.76690489-10.00325006l-13.38670194-10.00325006c-3.38345187-3.38345187-6.76690489-6.76690489-6.76690488-10.0032512l-3.38345188-13.38670194c0-3.38345187-3.38345187-6.61979819-6.76690489-10.00325006l-23.38995314-20.15360796c-6.76690489-3.38345187-6.76690489-13.38670307-3.38345187-20.15360683l13.38670194-23.38995314c0-3.38345187 3.38345187-3.38345187 6.76690488-6.76690489l26.77340502-10.00325006V442.8598875H846.66756437c-3.38345187 0-10.00325006 3.38345187-13.38670194 6.61979819l-10.0032512 13.38670308-10.00325006 10.00325006L809.8909093 456.09948387l-23.38995314-6.76690488 56.93026304-73.70041686 6.76690375 10.00325006V406.08323243c0 3.38345187 0 10.00325006 3.38345302 10.00325006l3.38345187 3.38345188c6.76690489 3.38345187 13.38670307 3.38345187 20.15360797 0l46.92701184-46.92701184c3.38345187-3.38345187 3.38345187-6.76690489 3.38345187-13.38670308l-3.38345187-13.38670194 30.15685688-3.38345188c3.38345187 0 6.76690489-3.38345187 10.0032512-3.38345301l26.77340502-26.77340501c3.38345187-3.38345187 6.76690489-10.00325006 3.38345187-16.77015495l-16.77015495-36.77665508 13.38670308-13.38670307H1014.36911389v3.38345301zM849.90391069 801.06451171c0 3.38345187-3.38345187 3.38345187-3.38345302 6.7669049v26.77340501c0 3.38345187 0 6.76690489 3.38345302 10.00325006l13.38670193 20.15360683 10.00325007-13.38670194c0-3.38345187 3.38345187-3.38345187 3.38345301-6.76690489l6.76690375-70.31696498h-16.77015382l-16.77015494 26.77340501z m0 0" fill="#1196db" p-id="4455"></path><path d="M312.52342101 678.67180259L192.04309789 595.99788146c-4.70741219-3.23634517-4.11898539-8.67929088 1.32395918-12.35695616l156.52144583-107.5349413c5.29583787-3.67766528 13.53380864-4.11898539 18.09411413-0.88263907l120.48032313 82.67392113c4.70741219 3.23634517 4.11898539 8.67929088-1.32395918 12.35695616l-156.52144583 107.38783346c-5.29583787 3.82477198-13.38670307 4.26609209-18.09411414 1.02974691z m0 0" fill="#C8CFE3" p-id="4456"></path><path d="M313.25895453 665.72641963l-120.48032427-82.67392114c-4.70741219-3.23634517-4.11898539-8.67929088 1.32396032-12.50406286l156.52144583-107.3878346c5.29583787-3.67766528 13.53380864-4.11898539 18.09411413-0.88263908l120.48032313 82.67392114c4.70741219 3.23634517 4.11898539 8.67929088-1.32395918 12.35695616l-156.52144583 107.3878346c-5.44294457 3.82477198-13.53380864 4.26609209-18.09411413 1.02974578z m0 0" fill="#D6DDEC" p-id="4457"></path><path d="M312.52342101 650.57443726L192.04309789 567.75340942c-4.70741219-3.23634517-4.11898539-8.67929088 1.32395918-12.35695616l156.52144583-107.38783345c5.29583787-3.67766528 13.53380864-4.11898539 18.09411413-0.88264022l120.48032313 82.67392114c4.70741219 3.23634517 4.11898539 8.67929088-1.32395918 12.50406286l-156.52144583 107.3878346c-5.29583787 3.67766528-13.38670307 4.11898539-18.09411414 0.88263907z m0 0" fill="#FFFFFF" p-id="4458"></path><path d="M476.54730411 536.27259221L323.11509789 641.45382741l-119.45057736-82.08549546 153.43220622-105.03412736 119.45057736 81.93838762z m0 0" fill="#EEF2FB" p-id="4459"></path><path d="M411.23196359 464.92588146l-15.44619463 10.59167687L380.33957319 464.92588146l15.44619577-10.59167687L411.23196359 464.92588146z m0 0" fill="#706EE7" p-id="4460"></path><path d="M411.23196359 519.79665067l-15.44619463 10.59167687v-54.87076921L411.23196359 464.92588146v54.87076921z m0 0" fill="#706EE7" p-id="4461"></path><path d="M380.48667989 519.79665067V464.92588146l15.44619577 10.59167687v54.87076921l-15.44619577-10.59167687z m0 0" fill="#706EE7" p-id="4462"></path><path d="M377.83876039 433.73927765l-15.44619463 10.59167688-15.44619577-10.59167688 15.44619577-10.59167687 15.44619463 10.59167687z m0 0" fill="#FFC107" p-id="4463"></path><path d="M377.83876039 550.2477221l-15.44619463 10.59167687v-116.65555115l15.44619463-10.59167687V550.2477221z m0 0" fill="#FFC107" p-id="4464"></path><path d="M347.09347669 550.2477221v-116.65555115l15.44619577 10.59167687v116.65555115l-15.44619577-10.59167687z m0 0" fill="#FFC107" p-id="4465"></path><path d="M344.15134493 479.63654371l-15.44619578 10.59167574-15.44619462-10.59167574 15.44619462-10.59167686 15.44619578 10.59167686z m0 0" fill="#3BB9FF" p-id="4466"></path><path d="M344.15134493 576.2855936l-15.44619578 10.59167687v-96.50194432l15.44619578-10.59167687v96.50194432z m0 0" fill="#32ABFC" p-id="4467"></path><path d="M313.40606009 576.2855936v-96.50194432l15.44619577 10.59167687v96.50194432l-15.44619577-10.59167687z m0 0" fill="#2194F4" p-id="4468"></path><path d="M310.61103502 519.64954397l-15.44619577 10.59167686-15.44619463-10.59167686 15.44619463-10.59167688 15.44619577 10.59167688z m0 0" fill="#29C287" p-id="4469"></path><path d="M310.61103502 598.35158642l-15.44619577 10.59167687v-78.70204246l15.44619577-10.59167686v78.70204245z m0 0" fill="#29C287" p-id="4470"></path><path d="M279.86575133 598.35158642v-78.70204245l15.44619462 10.59167686v78.70204246l-15.44619462-10.59167687z m0 0" fill="#29C287" p-id="4471"></path><path d="M674.55281721 565.39970333L554.07249408 482.57867549c-4.70741219-3.23634517-4.11898539-8.67929088 1.32395918-12.35695616l156.52144583-107.53494016c5.29583787-3.67766528 13.53380864-4.11898539 18.09411414-0.88264022l120.48032312 82.67392114c4.70741219 3.23634517 4.11898539 8.67929088-1.32395918 12.3569573l-156.52144583 107.38783346c-5.44294457 3.97187869-13.53380864 4.26609209-18.09411413 1.17685248z m0 0" fill="#C8CFE3" p-id="4472"></path><path d="M675.14124402 552.45432149l-120.48032427-82.67392227c-4.70741219-3.23634517-4.11898539-8.67929088 1.32396032-12.50406287l156.52144583-107.38783345c5.29583787-3.67766528 13.53380864-4.11898539 18.09411413-0.88264021l120.48032314 82.67392227c4.70741219 3.23634517 4.11898539 8.67929088-1.32395919 12.35695616l-156.52144583 107.38783346c-5.29583787 3.82477198-13.38670307 4.11898539-18.09411413 1.02974691z m0 0" fill="#D6DDEC" p-id="4473"></path><path d="M674.55281721 537.30233913l-120.48032313-82.82102784c-4.70741219-3.23634517-4.11898539-8.67929088 1.32395918-12.35695616l156.52144583-107.3878346c5.29583787-3.67766528 13.53380864-4.11898539 18.09411414-0.88263907l120.48032312 82.67392113c4.70741219 3.23634517 4.11898539 8.67929088-1.32395918 12.50406287l-156.52144583 107.38783345c-5.44294457 3.67766528-13.53380864 3.97187869-18.09411413 0.88264022z m0 0" fill="#FFFFFF" p-id="4474"></path><path d="M838.4295936 423.00049408l-153.43220622 105.03412736-119.45057735-82.08549433 153.43220736-105.0341285 119.45057621 82.08549547z m0 0" fill="#EEF2FB" p-id="4475"></path><path d="M773.26135979 351.65378219l-15.44619464 10.59167687-15.44619576-10.59167687 15.44619576-10.59167688 15.44619464 10.59167688z m0 0" fill="#706EE7" p-id="4476"></path><path d="M773.26135979 406.52455253l-15.44619464 10.59167688v-54.87077035l15.44619464-10.59167687v54.87077034z m0 0" fill="#706EE7" p-id="4477"></path><path d="M742.51607609 406.52455253V351.65378219l15.44619577 10.59167687v54.87077035l-15.44619577-10.59167688z m0 0" fill="#706EE7" p-id="4478"></path><path d="M739.72105102 320.32007168l-15.44619577 10.59167687-15.44619576-10.59167687 15.44619576-10.59167687 15.44619577 10.59167687z m0 0" fill="#FFC107" p-id="4479"></path><path d="M739.72105102 436.97562283l-15.44619577 10.59167687v-116.65555115l15.44619577-10.59167687V436.97562283z m0 0" fill="#FFC107" p-id="4480"></path><path d="M708.97576619 436.97562283v-116.65555115l15.44619576 10.59167687v116.65555115l-15.44619576-10.59167687z m0 0" fill="#FFC107" p-id="4481"></path><path d="M706.03363442 366.36444445l-15.44619577 10.59167686-15.44619463-10.59167686 15.44619463-10.59167688 15.44619577 10.59167688z m0 0" fill="#3BB9FF" p-id="4482"></path><path d="M706.03363442 462.86638877l-15.44619577 10.59167686v-96.50194432l15.44619577-10.59167686v96.50194432z m0 0" fill="#32ABFC" p-id="4483"></path><path d="M675.28835072 462.86638877V366.36444445l15.44619463 10.59167686v96.50194432l-15.44619463-10.59167686z m0 0" fill="#2194F4" p-id="4484"></path><path d="M672.64043122 406.23033913l-15.44619577 10.59167687-15.44619463-10.59167687 15.44619463-10.59167687 15.44619577 10.59167687z m0 0" fill="#29C287" p-id="4485"></path><path d="M672.64043122 484.93238158l-15.44619577 10.59167687v-78.70204245l15.44619577-10.59167687v78.70204245z m0 0" fill="#29C287" p-id="4486"></path><path d="M641.89514752 484.93238158v-78.70204245l15.44619463 10.59167687v78.70204245l-15.44619463-10.59167687z m0 0" fill="#29C287" p-id="4487"></path><path d="M650.86865067 853.87578937L530.38832754 771.20186709c-4.70741219-3.23634517-4.11898539-8.67929088 1.32396032-12.35695616l156.52144469-107.53494016c5.29583787-3.67766528 13.53380864-4.11898539 18.09411527-0.88264021l120.48032313 82.67392227c4.70741219 3.23634517 4.11898539 8.67929088-1.32396032 12.35695616l-156.52144469 107.38783346c-5.29583787 3.82477198-13.38670307 4.26609209-18.09411527 1.02974692z m0 0" fill="#C8CFE3" p-id="4488"></path><path d="M651.60418418 840.9304064l-120.48032313-82.67392114c-4.70741219-3.23634517-4.11898539-8.67929088 1.32395918-12.50406286l156.52144583-107.38783459c5.29583787-3.67766528 13.53380864-4.11898539 18.09411413-0.88263908l120.48032314 82.67392114c4.70741219 3.23634517 4.11898539 8.67929088-1.32395919 12.35695616l-156.52144583 107.38783346c-5.44294457 3.82477198-13.53380864 4.26609209-18.09411413 1.02974691z m0 0" fill="#D6DDEC" p-id="4489"></path><path d="M650.86865067 825.77842403L530.38832754 742.95739619c-4.70741219-3.23634517-4.11898539-8.67929088 1.32396032-12.35695616l156.52144469-107.38783345c5.29583787-3.67766528 13.53380864-4.11898539 18.09411527-0.88264021l120.48032313 82.67392113c4.70741219 3.23634517 4.11898539 8.67929088-1.32396032 12.50406287l-156.52144469 107.38783459c-5.29583787 3.67766528-13.38670307 3.97187869-18.09411527 0.88263907z m0 0" fill="#FFFFFF" p-id="4490"></path><path d="M814.89253376 711.47657899L661.46032754 816.51070749l-119.45057621-82.08549547 153.43220622-105.03412736 119.45057621 82.08549433z m0 0" fill="#EEF2FB" p-id="4491"></path><path d="M749.57719438 640.12986709l-15.44619577 10.59167688-15.44619463-10.59167688 15.44619463-10.59167573 15.44619577 10.59167573z m0 0" fill="#706EE7" p-id="4492"></path><path d="M749.57719438 695.00063744l-15.44619577 10.59167687v-54.87077034l15.44619577-10.59167688v54.87077035z m0 0" fill="#706EE7" p-id="4493"></path><path d="M718.83191069 695.00063744v-54.87077035l15.44619462 10.59167688v54.87077034l-15.44619462-10.59167687z m0 0" fill="#706EE7" p-id="4494"></path><path d="M716.18399118 608.79615659l-15.44619577 10.59167687-15.44619463-10.59167687 15.44619463-10.59167574 15.44619577 10.59167574z m0 0" fill="#FFC107" p-id="4495"></path><path d="M716.18399118 725.45170773l-15.44619577 10.59167688V619.38783346l15.44619577-10.59167687v116.65555114z m0 0" fill="#FFC107" p-id="4496"></path><path d="M685.43870749 725.45170773v-116.65555114l15.44619462 10.59167687v116.65555115l-15.44619462-10.59167688z m0 0" fill="#FFC107" p-id="4497"></path><path d="M682.49657458 654.84052935l-15.44619577 10.59167687-15.44619463-10.59167687 15.44619463-10.59167687 15.44619577 10.59167687z m0 0" fill="#3BB9FF" p-id="4498"></path><path d="M682.49657458 751.48958037l-15.44619577 10.59167688v-96.50194432l15.44619577-10.59167688v96.50194432z m0 0" fill="#32ABFC" p-id="4499"></path><path d="M651.75129088 751.48958037v-96.50194432l15.44619463 10.59167688V762.08125725l-15.44619463-10.59167688z m0 0" fill="#2194F4" p-id="4500"></path><path d="M648.95626467 694.85353074l-15.44619462 10.59167687-15.44619578-10.59167687 15.44619578-10.59167687 15.44619462 10.59167687z m0 0" fill="#29C287" p-id="4501"></path><path d="M648.95626467 773.40846649l-15.44619462 10.59167687v-78.70204245l15.44619462-10.59167688v78.70204246z m0 0" fill="#29C287" p-id="4502"></path><path d="M618.21098098 773.40846649v-78.70204246l15.44619577 10.59167688v78.70204245l-15.44619577-10.59167687z m0 0" fill="#29C287" p-id="4503"></path></svg>