<svg t="1646667428443" class="icon" viewBox="0 0 1024 1024" version="1.1" xmlns="http://www.w3.org/2000/svg" p-id="5686" width="200" height="200"><path d="M406.07288889 95.73262222H162.64533333a66.90019555 66.90019555 0 0 0-47.33155555 19.58115556 66.80576 66.80576 0 0 0-19.58115556 47.32017777v243.41617778a66.85354667 66.85354667 0 0 0 66.90133333 66.90133334h243.41617778a66.85354667 66.85354667 0 0 0 66.90133334-66.90133334V162.64533333c0.01137778-17.74933333-7.03146667-34.77048889-19.58115556-47.32017778a66.77276445 66.77276445 0 0 0-47.29742222-19.59253333zM908.68622222 115.32515555a66.80576 66.80576 0 0 0-47.32017777-19.58115555H617.93848889a66.85354667 66.85354667 0 0 0-66.90133334 66.90133333v243.41617778a66.85354667 66.85354667 0 0 0 66.90133334 66.90133334h243.4048c17.74933333 0.01137778 34.77048889-7.03146667 47.32017778-19.58115556a66.86492445 66.86492445 0 0 0 19.59253333-47.32017778V162.64533333c0.02275555-17.74933333-7.02008889-34.77048889-19.56977778-47.32017778zM406.06151111 551.03715555l0.01137778-0.01137777H162.64533333a66.90019555 66.90019555 0 0 0-47.33155555 19.58115555 66.80576 66.80576 0 0 0-19.58115556 47.32017778v243.41617778a66.90019555 66.90019555 0 0 0 19.58115556 47.33155556 66.80576 66.80576 0 0 0 47.32017777 19.58115555h243.41617778a66.85354667 66.85354667 0 0 0 66.90133334-66.90133333V617.93848889c0.01137778-17.74933333-7.03146667-34.77048889-19.58115556-47.32017778a66.80803555 66.80803555 0 0 0-47.3088-19.58115556zM861.36604445 551.03715555v-0.01137777H617.93848889a66.85354667 66.85354667 0 0 0-66.90133334 66.90133333v243.41617778a66.88995555 66.88995555 0 0 0 19.56977778 47.32017778 66.86492445 66.86492445 0 0 0 47.32017778 19.59253333h243.42755556c17.74933333 0.01137778 34.77048889-7.03146667 47.33155555-19.58115555a66.80576 66.80576 0 0 0 19.58115556-47.32017778V617.93848889a66.85354667 66.85354667 0 0 0-66.90133333-66.90133334z" p-id="5687"></path></svg>