
<svg t="1673857017597" class="icon" viewBox="0 0 1024 1024" version="1.1" xmlns="http://www.w3.org/2000/svg" p-id="3828" xmlns:xlink="http://www.w3.org/1999/xlink" width="1024" height="1024">
    <path d="M577.931636 775.749818v65.954909H709.818182V907.636364h-395.636364v-65.931637h131.886546v-65.954909H172.916364A56.529455 56.529455 0 0 1 116.363636 719.220364V215.272727 172.893091A56.529455 56.529455 0 0 1 172.893091 116.363636H851.083636A56.529455 56.529455 0 0 1 907.636364 172.893091v546.327273a56.529455 56.529455 0 0 1-56.529455 56.529454H577.931636zM231.749818 182.295273H182.295273v461.591272h659.409454V231.749818 182.295273H231.749818zM512 742.795636a32.977455 32.977455 0 1 0 0-65.954909 32.977455 32.977455 0 0 0 0 65.954909z m-98.909091-362.682181h65.931636v197.818181H413.090909v-197.818181z m-131.886545 65.954909h65.954909v131.863272h-65.954909v-131.863272zM544.977455 314.181818h65.931636v263.749818h-65.931636V314.181818z m131.863272-65.931636h65.954909v329.681454h-65.954909V248.250182z" p-id="3829">
    </path>
</svg>
