<svg t="1679734152533" class="icon" viewBox="0 0 1024 1024" version="1.1" xmlns="http://www.w3.org/2000/svg" p-id="20688" xmlns:xlink="http://www.w3.org/1999/xlink" width="1024" height="1024"><path d="M900.3614811 657.63555555h-48.54518443v-145.63555555c0-29.12711111-19.41807445-48.54518557-48.54518556-48.54518557h-242.72592554V366.36444445h48.54518442c29.12711111 0 48.54518557-19.41807445 48.54518556-48.54518557V123.6385189c0-29.12711111-19.41807445-48.54518557-48.54518556-48.54518557h-194.18073998c-29.12711111 0-48.54518557 19.41807445-48.54518556 48.54518557v194.18073998c0 29.12711111 19.41807445 48.54518557 48.54518556 48.54518557h48.54518442v97.09036998H220.72888889c-29.12711111 0-48.54518557 19.41807445-48.54518556 48.54518557v145.63555555H123.6385189c-29.12711111 0-48.54518557 19.41807445-48.54518557 48.54518557v194.18073998c0 29.12711111 19.41807445 48.54518557 48.54518557 48.54518557h194.18073998c29.12711111 0 48.54518557-19.41807445 48.54518557-48.54518557v-194.18073998c0-29.12711111-19.41807445-48.54518557-48.54518557-48.54518557H269.27407445v-97.09036998h485.4518511v97.09036998h-48.54518443c-29.12711111 0-48.54518557 19.41807445-48.54518557 48.54518557v194.18073998c0 29.12711111 19.41807445 48.54518557 48.54518557 48.54518557h194.18073998c29.12711111 0 48.54518557-19.41807445 48.54518557-48.54518557v-194.18073998c0-29.12711111-19.41807445-48.54518557-48.54518557-48.54518557z" p-id="20689"></path></svg>
