<svg t="1646722298439" class="icon" viewBox="0 0 1024 1024" version="1.1" xmlns="http://www.w3.org/2000/svg" p-id="5420" width="200" height="200"><path d="M743.1875 90.125q16.03125 0 29.953125 5.90625t24.46875 16.453125 16.453125 24.46875 5.90625 29.953125l0 690.1875q0 32.0625-22.359375 54.421875t-54.421875 22.359375l-460.6875 0q-32.0625 0-54.421875-22.359375t-22.359375-54.421875l0-690.1875q0-16.03125 5.90625-29.953125t16.453125-24.46875 24.46875-16.453125 29.953125-5.90625l460.6875 0zM436.0625 166.90625l152.71875 0 0-38.8125-152.71875 0 0 38.8125zM512 895.0625q16.03125 0 29.953125-5.90625t24.46875-16.453125 16.453125-24.46875 5.90625-29.953125-5.90625-29.953125-16.453125-24.046875-24.46875-16.03125-29.953125-5.90625q-32.0625 0-54 21.9375t-21.9375 54 21.9375 54.421875 54 22.359375zM743.1875 204.875l-460.6875 0 0 498.65625 460.6875 0 0-498.65625z" p-id="5421"></path></svg>
