<svg t="1679735776126" class="icon" viewBox="0 0 1024 1024" version="1.1" xmlns="http://www.w3.org/2000/svg" p-id="16197" xmlns:xlink="http://www.w3.org/1999/xlink" width="1024" height="1024"><path d="M768 85.333333H256C209.066667 85.333333 170.666667 123.733333 170.666667 170.666667v682.666666c0 46.933333 38.4 85.333333 85.333333 85.333334h512c46.933333 0 85.333333-38.4 85.333333-85.333334V170.666667c0-46.933333-38.4-85.333333-85.333333-85.333334zM298.666667 170.666667h426.666666c23.466667 0 42.666667 19.2 42.666667 42.666666v384H256V213.333333c0-23.466667 19.2-42.666667 42.666667-42.666666z m426.666666 682.666666H298.666667c-23.466667 0-42.666667-19.2-42.666667-42.666666v-128h512v128c0 23.466667-19.2 42.666667-42.666667 42.666666z" p-id="16198"></path><path d="M512 768m-64 0a64 64 0 1 0 128 0 64 64 0 1 0-128 0Z" p-id="16199"></path></svg>
