<?xml version="1.0" standalone="no"?><!DOCTYPE svg PUBLIC "-//W3C//DTD SVG 1.1//EN" "http://www.w3.org/Graphics/SVG/1.1/DTD/svg11.dtd"><svg t="1702199207157" class="icon" viewBox="0 0 1024 1024" version="1.1" xmlns="http://www.w3.org/2000/svg" p-id="3903" xmlns:xlink="http://www.w3.org/1999/xlink" width="200" height="200"><path d="M522.40625 461.9375c-11.625 4.59375-8.53125 5.34375-22.6875-0.28125L120.78125 304.25c-3.09375-2.90625-4.875-6.9375-5.0625-11.15625-0.09375-4.21875 1.40625-8.34375 4.40625-11.4375L489.59375 124.4375c8.34375-3.9375 16.96875-6.09375 32.25 0.1875L898.25 278.84375c6.46875 6.28125 6.75 16.5 0.75 22.6875L522.40625 461.9375z m11.4375 428.625c0 9.5625 7.78125 17.34375 17.4375 17.34375l360.75-188.0625c14.0625-8.8125 17.34375-24.375 17.34375-46.96875V355.53125c0-4.59375-1.78125-9-5.0625-12.28125-3.28125-3.28125-7.6875-5.0625-12.28125-5.0625L551.1875 489.59375c-17.4375 6.75-17.4375 15.65625-17.4375 25.21875l0.09375 375.75z m-60.65625-400.96875L112.4375 338.1875c-4.59375 0-9 1.78125-12.28125 5.0625-3.28125 3.28125-5.0625 7.6875-5.0625 12.28125v364.78125c0 3.84375-2.34375 9.46875 17.34375 17.34375l360.75 170.34375c9.5625 0 17.34375-7.78125 17.34375-17.34375V514.8125c0-9.5625 0-18.46875-17.34375-25.21875zM355.4375 579.40625c-46.21875-20.15625-92.34375-40.3125-138.46875-60.65625-7.59375-3.28125-11.4375-4.6875-11.4375-10.6875V467.9375c-0.1875-5.25 3-12.1875 9.09375-9.84375l142.21875 62.4375c13.21875 6.28125 9.1875 7.03125 9.75 30.9375v19.875c0.09375 3.9375-3.65625 11.25-11.15625 8.0625z m0 0" p-id="3904"></path></svg>