<?xml version="1.0" standalone="no"?><!DOCTYPE svg PUBLIC "-//W3C//DTD SVG 1.1//EN" "http://www.w3.org/Graphics/SVG/1.1/DTD/svg11.dtd"><svg t="1695086079521" class="icon" viewBox="0 0 1080 1024" version="1.1" xmlns="http://www.w3.org/2000/svg" p-id="3150" xmlns:xlink="http://www.w3.org/1999/xlink" width="210.9375" height="200"><path d="M203.05549051 985.57749219c-28.58979281-16.04804437-27.78064781-2.5622925-28.05036282-465.79785844-0.1348575-392.3005125 0.6742875-433.83662719 9.03545344-451.368105 17.12690438-36.00695625 19.41948187-36.41152875 265.93902094-36.41152875h221.03146781L937.08494738 312.90820437v641.51720157L921.036903 972.36145531l-16.04804437 18.07090688-344.29123687 1.2137175c-279.02019938 1.07886-346.98838688-0.1348575-357.64213125-6.0685875z m677.52415781-333.50263594l1.4834325-283.06592531h-109.90887469c-96.82769625 0-111.25745063-1.2137175-120.96719156-9.70974094-19.55433938-17.12690438-23.33035031-42.61497469-23.33035032-159.67129875v-112.47116719L430.29040425 88.64015656l-197.43140249 1.4834325-1.4834325 416.97943781c-0.809145 229.39263375-0.269715 420.21601781 1.2137175 423.99202876 2.15772 5.52915844 69.99105094 6.60801844 324.60204 5.52915843l321.90488906-1.48343343 1.4834325-283.06592438zM318.49352457 739.05795313v-27.64579032h480.63218437v55.29158157H318.49352457V739.05795313z m0-110.31344719v-27.64579031h481.17161437l-3.3714375 52.45957312-238.83265968 1.4834325-238.96751719 1.4834325v-27.78064781z m0-143.75811188v-27.64579031h220.89661031v55.29158156H318.49352457v-27.64579125z m0-115.97746312v-27.64579031h220.89661031v55.29158156H318.49352457v-27.64579125z m452.04239156-144.29754094l-84.82537781-89.00596031-1.61829 76.59906844c-2.2925775 111.66202312-11.19317344 101.54770875 87.92710031 101.54770875h83.34194438l-84.82537688-89.14081688z m0 0" p-id="3151"></path></svg>