<svg t="1646287810443" class="icon" viewBox="0 0 1024 1024" version="1.1" xmlns="http://www.w3.org/2000/svg" p-id="4289" width="200" height="200"><path d="M460.44133482 274.46186379v-200.79820437c1.18374522-10.03991009-1.62216892-20.51824389-9.38227454-28.19066477a34.69249255 34.69249255 0 0 0-48.79659341 0l-340.08551577 372.92347665c-7.14631122 7.14631122-10.25912195 16.52858576-9.7330135 25.91085909-0.52610845 9.38227454 2.58670228 18.76454787 9.7330135 25.99854504l338.24413499 370.77519808c6.26946382 7.67242089 15.34484055 12.71429712 25.91085909 12.71429591 9.60148639 0 18.23843942-3.98965813 24.50790325-10.4783338 0-0.08768475 0.21921185-0.08768475 0.21921185-0.21921185 7.76010562-7.67242089 10.56601854-18.01922757 9.38227454-28.05913768 0 0 0.52610845-188.82922754 0.52610844-200.49130655 224.69231321 0 427.98953267 161.86615035 468.36838613 374.7648562 27.09460431-62.38773916 42.30791897-131.17646802 42.30791775-203.64795963 0-282.3450715-228.85734081-511.20241354-511.20241232-511.20241232z m34.63549809 272.04210718c-22.35962467 0-102.76659139 0.52610845-102.76659141 0.52610844v183.12971576l-260.73076834-285.89630715 260.73076834-285.89630593v184.18193264s85.09810278-0.87684862 102.76659141-0.3068966c240.43173509 7.45320782 407.33976166 281.24901225 408.43582091 409.31266955-73.3921814-94.26116547-266.43028014-205.05091671-408.43582091-205.05091671z" p-id="4290"></path></svg>
