<svg t="1679927274483" class="icon" viewBox="0 0 1024 1024" version="1.1" xmlns="http://www.w3.org/2000/svg" p-id="17044" xmlns:xlink="http://www.w3.org/1999/xlink" width="38" height="38"><path d="M940.2595552 461.25511147a57.344 57.344 0 0 0-40.27733333-42.09777814l-13.88088854-3.18577813a140.17422187 140.17422187 0 0 1-95.57333333-166.79822187l4.096-13.19822186a57.79911147 57.79911147 0 0 0-16.1564448-55.97866667A394.58133333 394.58133333 0 0 0 728.17777813 147.91111147a397.5395552 397.5395552 0 0 0-53.248-27.30666667 57.1164448 57.1164448 0 0 0-56.43377813 13.88088853l-9.78488853 10.4675552a139.4915552 139.4915552 0 0 1-192.0568896 0l-9.32977707-10.24a57.1164448 57.1164448 0 0 0-56.43377813-13.88088853A395.264 395.264 0 0 0 297.1875552 147.91111147a394.12622187 394.12622187 0 0 0-50.28977707 32.54044373 57.344 57.344 0 0 0-16.384 55.97866667l4.096 13.19822293a139.94666667 139.94666667 0 0 1-95.8008896 166.3431104l-13.65333333 3.18577813a57.344 57.344 0 0 0-40.04977707 42.09777814 392.9884448 392.9884448 0 0 0-2.95822293 60.07466666A390.9404448 390.9404448 0 0 0 85.10577813 580.26666667 57.5715552 57.5715552 0 0 0 125.1555552 623.50222187l13.19822293 2.95822293a140.17422187 140.17422187 0 0 1 96.256 167.25333333l-4.096 13.19822187a57.344 57.344 0 0 0 16.384 55.97866667 386.8444448 386.8444448 0 0 0 50.28977707 32.5404448A386.8444448 386.8444448 0 0 0 350.66311147 921.6a57.344 57.344 0 0 0 56.43377706-13.65333333l9.32977814-9.10222187a139.71911147 139.71911147 0 0 1 192.512 0l9.32977813 10.01244373a57.344 57.344 0 0 0 56.43377707 13.65333334 409.6 409.6 0 0 0 53.47555626-27.30666667 390.71288853 390.71288853 0 0 0 50.28977707-32.54044373 57.5715552 57.5715552 0 0 0 16.384-55.97866667l-4.096-13.65333333A140.17422187 140.17422187 0 0 1 887.0115552 625.77777813l13.19822293-2.95822293A57.1164448 57.1164448 0 0 0 940.48711147 580.26666667a392.53333333 392.53333333 0 0 0 3.86844373-59.1644448 396.17422187 396.17422187 0 0 0-4.096-59.8471104zM512 650.80888853a138.80888853 138.80888853 0 1 1 138.35377813-138.80888853A138.58133333 138.58133333 0 0 1 512 650.80888853z" p-id="17045"></path></svg>
