<svg t="1679735790643" class="icon" viewBox="0 0 1024 1024" version="1.1" xmlns="http://www.w3.org/2000/svg" p-id="16501" xmlns:xlink="http://www.w3.org/1999/xlink" width="1024" height="1024"><path d="M512 90.125a421.875 421.875 0 1 1 0 843.75A421.875 421.875 0 0 1 512 90.125z m0 71.59821405a350.33705393 350.33705393 0 0 0 0 700.5535719A350.33705393 350.33705393 0 0 0 512 161.72321405z m22.72098203 131.80580393c4.09821406 0 7.53348202 3.375 7.53348202 7.53348202v233.05580393L676.53125001 631.20982108c3.375 2.41071406 4.09821406 7.05133906 1.68749998 10.54687501l-26.93973202 36.76339296a7.59375001 7.59375001 0 0 1-10.546875 1.56696488L485 566.54241095a7.47321405 7.47321405 0 0 1-3.13392892-6.14732189V301.0625c0-4.15848202 3.375-7.53348202 7.53348284-7.53348202z" p-id="16502"></path></svg>
