<svg t="1679735518298" class="icon" viewBox="0 0 1024 1024" version="1.1" xmlns="http://www.w3.org/2000/svg" p-id="16070" xmlns:xlink="http://www.w3.org/1999/xlink" width="1024" height="1024"><path d="M620.01757813 475.96484375H403.98242187C265.02734375 475.96484375 152 589.08007813 152 728.03515625v108.01757813c0 59.58984375 48.42773438 108.01757813 108.01757813 108.01757812h503.96484374c59.58984375 0 108.01757813-48.42773438 108.01757813-108.01757813V728.03515625C872 589.08007813 758.97265625 475.96484375 620.01757813 475.96484375z m179.99999999 360c0 19.86328125-16.171875 36.03515625-36.03515624 36.03515625H260.01757812c-19.86328125 0-36.03515625-16.171875-36.03515624-36.03515625V728.03515625c0-99.22851563 80.77148438-180 179.99999999-180h216.03515626c99.22851563 0 180 80.77148438 179.99999999 180v107.9296875zM512 440.01757812c99.40429689 0 180-80.59570313 180-179.99999999S611.40429689 80.01757812 512 80.01757812s-180 80.59570313-180 180.00000001S412.59570311 440.01757812 512 440.01757812z m0-288.01757812c59.58984375 0 108.01757813 48.42773438 108.01757813 108.01757813S571.58984375 368.03515625 512 368.03515625 403.98242187 319.51953125 403.98242187 260.01757812 452.41015625 152 512 152z" p-id="16071"></path></svg>
