<svg t="1646462360675" class="icon" viewBox="0 0 1024 1024" version="1.1" xmlns="http://www.w3.org/2000/svg" p-id="5059" width="200" height="200"><path d="M983.46875001 842.65625001L773.65625001 479.28124999 563.84375001 115.90624999c-11.53125001-19.96875001-31.78125001-30-51.9375-29.99999998-20.25 0-40.40625001 10.03125001-51.9375 30L250.15624999 479.28124999 40.34374999 842.65625001c-23.0625 40.03125001 5.8125 90 51.93750002 89.99999998h839.25c46.21875001 0 75-49.96875001 51.9375-90z m-523.50000002-72.56250002v-52.03124999c0-14.34375001 11.625-25.96875001 25.96875001-25.96875001h52.03125001c14.34375001 0 25.96875001 11.625 25.96874999 25.96875001v52.03124999c0 14.34375001-11.625 25.96875001-25.96874999 25.96875001h-52.03125001c-14.25 0-25.96875001-11.625-25.96875001-25.96875001z m103.40625001-364.49999998l-12.09375001 253.21874999c-0.1875 3.46875001-3 6.1875-6.46874999 6.1875h-65.625c-3.46875001 0-6.375-2.71875001-6.46875001-6.1875l-12.09374999-253.21875001c-0.375-7.40625001 5.53125001-13.59375001 13.03125001-13.59374999h76.68749998c7.40625001 0 13.40625001 6.1875 13.03125001 13.59375001z" p-id="5060"></path></svg>
