{
    "asset" : {
        "generator" : "Khronos glTF Blender I/O v1.8.19",
        "version" : "2.0"
    },
    "scene" : 0,
    "scenes" : [
        {
            "name" : "Scene",
            "nodes" : [
                0
            ]
        }
    ],
    "nodes" : [
        {
            "mesh" : 0,
            "name" : "\u5de5\u4e1a\u8bbe\u590723"
        }
    ],
    "materials" : [
        {
            "doubleSided" : true,
            "name" : "Material #2114895037",
            "pbrMetallicRoughness" : {
                "baseColorFactor" : [
                    0.26274511218070984,
                    0.26274511218070984,
                    0.26274511218070984,
                    1
                ],
                "metallicFactor" : 0.4015747904777527,
                "roughnessFactor" : 0.7483423948287964
            }
        },
        {
            "doubleSided" : true,
            "name" : "02 - Default.004",
            "pbrMetallicRoughness" : {
                "baseColorFactor" : [
                    0.9686275124549866,
                    0.9686275124549866,
                    0.9686275124549866,
                    1
                ],
                "metallicFactor" : 0.3779527544975281,
                "roughnessFactor" : 0.858578622341156
            }
        },
        {
            "doubleSided" : true,
            "name" : "Mat3d66-4618054-185-6114",
            "pbrMetallicRoughness" : {
                "baseColorFactor" : [
                    0.3960784673690796,
                    0.3960784673690796,
                    0.3960784673690796,
                    1
                ],
                "metallicFactor" : 0.4015747904777527,
                "roughnessFactor" : 0.858578622341156
            }
        },
        {
            "doubleSided" : true,
            "name" : "Mat3d66-4618054-183-9754",
            "pbrMetallicRoughness" : {
                "baseColorFactor" : [
                    0.06666667014360428,
                    0.06666667014360428,
                    0.06666667014360428,
                    1
                ],
                "metallicFactor" : 0.33070868253707886,
                "roughnessFactor" : 0.8197498917579651
            }
        },
        {
            "doubleSided" : true,
            "name" : "Mat3d66-4618054-184-6598",
            "pbrMetallicRoughness" : {
                "baseColorFactor" : [
                    0.15294118225574493,
                    0.15294118225574493,
                    0.15294118225574493,
                    1
                ],
                "metallicFactor" : 0.33858269453048706,
                "roughnessFactor" : 0.696856677532196
            }
        }
    ],
    "meshes" : [
        {
            "name" : "\u7f51\u683c.1950",
            "primitives" : [
                {
                    "attributes" : {
                        "POSITION" : 0,
                        "NORMAL" : 1,
                        "TEXCOORD_0" : 2
                    },
                    "indices" : 3,
                    "material" : 0
                },
                {
                    "attributes" : {
                        "POSITION" : 4,
                        "NORMAL" : 5,
                        "TEXCOORD_0" : 6
                    },
                    "indices" : 7,
                    "material" : 1
                },
                {
                    "attributes" : {
                        "POSITION" : 8,
                        "NORMAL" : 9,
                        "TEXCOORD_0" : 10
                    },
                    "indices" : 11,
                    "material" : 2
                },
                {
                    "attributes" : {
                        "POSITION" : 12,
                        "NORMAL" : 13,
                        "TEXCOORD_0" : 14
                    },
                    "indices" : 15,
                    "material" : 3
                },
                {
                    "attributes" : {
                        "POSITION" : 16,
                        "NORMAL" : 17,
                        "TEXCOORD_0" : 18
                    },
                    "indices" : 19,
                    "material" : 4
                }
            ]
        }
    ],
    "accessors" : [
        {
            "bufferView" : 0,
            "componentType" : 5126,
            "count" : 5257,
            "max" : [
                0.6272420883178711,
                1.2544840574264526,
                0.29057949781417847
            ],
            "min" : [
                -0.6272420883178711,
                0,
                -0.29057949781417847
            ],
            "type" : "VEC3"
        },
        {
            "bufferView" : 1,
            "componentType" : 5126,
            "count" : 5257,
            "type" : "VEC3"
        },
        {
            "bufferView" : 2,
            "componentType" : 5126,
            "count" : 5257,
            "type" : "VEC2"
        },
        {
            "bufferView" : 3,
            "componentType" : 5123,
            "count" : 6726,
            "type" : "SCALAR"
        },
        {
            "bufferView" : 4,
            "componentType" : 5126,
            "count" : 192,
            "max" : [
                0.532112717628479,
                1.1593546867370605,
                0.24508723616600037
            ],
            "min" : [
                -0.5321126580238342,
                0.09512931108474731,
                0.2450869381427765
            ],
            "type" : "VEC3"
        },
        {
            "bufferView" : 5,
            "componentType" : 5126,
            "count" : 192,
            "type" : "VEC3"
        },
        {
            "bufferView" : 6,
            "componentType" : 5126,
            "count" : 192,
            "type" : "VEC2"
        },
        {
            "bufferView" : 7,
            "componentType" : 5123,
            "count" : 198,
            "type" : "SCALAR"
        },
        {
            "bufferView" : 8,
            "componentType" : 5126,
            "count" : 1692,
            "max" : [
                0.6272420287132263,
                1.2544840574264526,
                0.28590860962867737
            ],
            "min" : [
                -0.6272420287132263,
                0,
                0.14835801720619202
            ],
            "type" : "VEC3"
        },
        {
            "bufferView" : 9,
            "componentType" : 5126,
            "count" : 1692,
            "type" : "VEC3"
        },
        {
            "bufferView" : 10,
            "componentType" : 5126,
            "count" : 1692,
            "type" : "VEC2"
        },
        {
            "bufferView" : 11,
            "componentType" : 5123,
            "count" : 2040,
            "type" : "SCALAR"
        },
        {
            "bufferView" : 12,
            "componentType" : 5126,
            "count" : 17345,
            "max" : [
                0.5276210904121399,
                1.154862642288208,
                0.24839681386947632
            ],
            "min" : [
                -0.5276088118553162,
                0.09962135553359985,
                0.2207135260105133
            ],
            "type" : "VEC3"
        },
        {
            "bufferView" : 13,
            "componentType" : 5126,
            "count" : 17345,
            "type" : "VEC3"
        },
        {
            "bufferView" : 14,
            "componentType" : 5126,
            "count" : 17345,
            "type" : "VEC2"
        },
        {
            "bufferView" : 15,
            "componentType" : 5123,
            "count" : 25404,
            "type" : "SCALAR"
        },
        {
            "bufferView" : 16,
            "componentType" : 5126,
            "count" : 765,
            "max" : [
                0.5212493538856506,
                0.7709658741950989,
                0.2715756297111511
            ],
            "min" : [
                -0.2552354335784912,
                0.49148881435394287,
                0.2653026580810547
            ],
            "type" : "VEC3"
        },
        {
            "bufferView" : 17,
            "componentType" : 5126,
            "count" : 765,
            "type" : "VEC3"
        },
        {
            "bufferView" : 18,
            "componentType" : 5126,
            "count" : 765,
            "type" : "VEC2"
        },
        {
            "bufferView" : 19,
            "componentType" : 5123,
            "count" : 1200,
            "type" : "SCALAR"
        }
    ],
    "bufferViews" : [
        {
            "buffer" : 0,
            "byteLength" : 63084,
            "byteOffset" : 0
        },
        {
            "buffer" : 0,
            "byteLength" : 63084,
            "byteOffset" : 63084
        },
        {
            "buffer" : 0,
            "byteLength" : 42056,
            "byteOffset" : 126168
        },
        {
            "buffer" : 0,
            "byteLength" : 13452,
            "byteOffset" : 168224
        },
        {
            "buffer" : 0,
            "byteLength" : 2304,
            "byteOffset" : 181676
        },
        {
            "buffer" : 0,
            "byteLength" : 2304,
            "byteOffset" : 183980
        },
        {
            "buffer" : 0,
            "byteLength" : 1536,
            "byteOffset" : 186284
        },
        {
            "buffer" : 0,
            "byteLength" : 396,
            "byteOffset" : 187820
        },
        {
            "buffer" : 0,
            "byteLength" : 20304,
            "byteOffset" : 188216
        },
        {
            "buffer" : 0,
            "byteLength" : 20304,
            "byteOffset" : 208520
        },
        {
            "buffer" : 0,
            "byteLength" : 13536,
            "byteOffset" : 228824
        },
        {
            "buffer" : 0,
            "byteLength" : 4080,
            "byteOffset" : 242360
        },
        {
            "buffer" : 0,
            "byteLength" : 208140,
            "byteOffset" : 246440
        },
        {
            "buffer" : 0,
            "byteLength" : 208140,
            "byteOffset" : 454580
        },
        {
            "buffer" : 0,
            "byteLength" : 138760,
            "byteOffset" : 662720
        },
        {
            "buffer" : 0,
            "byteLength" : 50808,
            "byteOffset" : 801480
        },
        {
            "buffer" : 0,
            "byteLength" : 9180,
            "byteOffset" : 852288
        },
        {
            "buffer" : 0,
            "byteLength" : 9180,
            "byteOffset" : 861468
        },
        {
            "buffer" : 0,
            "byteLength" : 6120,
            "byteOffset" : 870648
        },
        {
            "buffer" : 0,
            "byteLength" : 2400,
            "byteOffset" : 876768
        }
    ],
    "buffers" : [
        {
            "byteLength" : 879168,
            "uri" : "data:application/octet-stream;base64,"
        }
    ]
}
